<svg xmlns="http://www.w3.org/2000/svg" width="240.25" height="124" viewBox="0 0 240.25 124"><defs><style>.cls-1{fill:#231f20;}</style></defs><title>Asset 13</title><g id="Layer_2" data-name="Layer 2"><g id="Layer_2-2" data-name="Layer 2"><path class="cls-1" d="M54.79,41.51v9.37A3.74,3.74,0,0,1,51,54.62H3.75A3.74,3.74,0,0,1,0,50.88V41.51a3.74,3.74,0,0,1,3.75-3.74H51A3.74,3.74,0,0,1,54.79,41.51ZM48.47,63.05a6.33,6.33,0,1,0,6.32,6.33A6.32,6.32,0,0,0,48.47,63.05Zm0,21.08a6.32,6.32,0,0,0-6.32,6.32v21.07a6.32,6.32,0,1,0,12.64,0V90.45A6.32,6.32,0,0,0,48.47,84.13ZM6.32,105.2a6.32,6.32,0,1,0,6.32,6.32A6.32,6.32,0,0,0,6.32,105.2Zm0-42.15a6.33,6.33,0,1,0,6.32,6.33A6.32,6.32,0,0,0,6.32,63.05Zm0,21.08a6.32,6.32,0,1,0,6.32,6.32A6.32,6.32,0,0,0,6.32,84.13ZM27.4,63.05a6.33,6.33,0,1,0,6.32,6.33A6.32,6.32,0,0,0,27.4,63.05Zm0,42.15a6.32,6.32,0,1,0,6.32,6.32A6.32,6.32,0,0,0,27.4,105.2Zm0-21.07a6.32,6.32,0,1,0,6.32,6.32A6.32,6.32,0,0,0,27.4,84.13ZM240.25,33.72V124H61.11V33.72L27.4,0H206.53ZM82.57,57.37a5.33,5.33,0,0,0,1.64-.92A5,5,0,0,0,85.37,55a8.34,8.34,0,0,0,.72-1.81l-2.88-.81a10.52,10.52,0,0,1-.39,1.08,3,3,0,0,1-.54.87,2.15,2.15,0,0,1-.8.58,2.89,2.89,0,0,1-1.15.2A2.46,2.46,0,0,1,78,53.9a6.86,6.86,0,0,1-.71-3.42V47.59A6.86,6.86,0,0,1,78,44.17a2.47,2.47,0,0,1,2.34-1.26,2.88,2.88,0,0,1,1.15.21,2.12,2.12,0,0,1,.8.57,3.1,3.1,0,0,1,.54.88,10.52,10.52,0,0,1,.39,1.08l2.88-.82a8.46,8.46,0,0,0-.72-1.8,5,5,0,0,0-1.16-1.41,5.13,5.13,0,0,0-1.64-.92,6.66,6.66,0,0,0-2.2-.33,5.52,5.52,0,0,0-4.86,2.27A11.17,11.17,0,0,0,73.94,49a11.18,11.18,0,0,0,1.57,6.41,5.51,5.51,0,0,0,4.86,2.26A6.66,6.66,0,0,0,82.57,57.37Zm18.13,0v-2.3H99.24V49.27a4.14,4.14,0,0,0-1.38-3.39A5.85,5.85,0,0,0,94,44.74a6.73,6.73,0,0,0-3.32.71,4.6,4.6,0,0,0-1.87,1.74l1.76,1.48a4.12,4.12,0,0,1,1.22-1.17,3.45,3.45,0,0,1,1.9-.46,2.11,2.11,0,0,1,2.45,2.38v.81H94c-3.66,0-5.5,1.25-5.5,3.75a3.44,3.44,0,0,0,1.11,2.73,4.28,4.28,0,0,0,3,1A4.36,4.36,0,0,0,95,57.06a3.12,3.12,0,0,0,1.32-1.79h.12a2.45,2.45,0,0,0,.73,1.58,2.51,2.51,0,0,0,1.74.56ZM92.09,55.2a1.28,1.28,0,0,1-.56-1.13v-.48c0-1.05.84-1.58,2.52-1.58h2.12v1.66a1.62,1.62,0,0,1-.74,1.4,3.14,3.14,0,0,1-1.83.52A2.56,2.56,0,0,1,92.09,55.2Zm11.18,2.21h11V55h-4V39.65h-7v2.4h3.93V55h-3.93Zm15,0h11V55h-3.8V45h-7.15v2.4h4.08V55h-4.08Zm7.14-14.76a1.5,1.5,0,0,0,.45-1.1V41a1.5,1.5,0,0,0-.45-1.1,2,2,0,0,0-1.52-.46,2.07,2.07,0,0,0-1.53.46,1.53,1.53,0,0,0-.44,1.1v.58a1.53,1.53,0,0,0,.44,1.1,2.12,2.12,0,0,0,1.53.46A2.07,2.07,0,0,0,125.43,42.65Zm6.71,14.76H143V55h-4V47.43h4.59V45H139v-3h4.59v-2.4h-4.18a4.31,4.31,0,0,0-1.55.25,3,3,0,0,0-1.09.7,2.62,2.62,0,0,0-.63,1,4.17,4.17,0,0,0-.21,1.36v2h-4v2.4h4V55h-3.79Zm22.32-.17A5.21,5.21,0,0,0,156.37,56a5.74,5.74,0,0,0,1.2-2,8.82,8.82,0,0,0,0-5.38,5.74,5.74,0,0,0-1.2-2,5.36,5.36,0,0,0-1.91-1.3,7.31,7.31,0,0,0-5.05,0,5.32,5.32,0,0,0-1.9,1.3,5.74,5.74,0,0,0-1.2,2,8.82,8.82,0,0,0,0,5.38,5.74,5.74,0,0,0,1.2,2,5.17,5.17,0,0,0,1.9,1.29,7.16,7.16,0,0,0,5.05,0Zm-4.61-2.7a3.29,3.29,0,0,1-.77-2.36V50.26a3.33,3.33,0,0,1,.77-2.37,3.13,3.13,0,0,1,4.18,0,3.33,3.33,0,0,1,.76,2.37v1.92a3.28,3.28,0,0,1-.76,2.36,3.1,3.1,0,0,1-4.18,0Zm11.09,2.87h10.44V55h-4.3V50.82a2.77,2.77,0,0,1,3-2.91h2.54V45h-1.34a3.93,3.93,0,0,0-1.61.29,3.4,3.4,0,0,0-1.14.76,3.9,3.9,0,0,0-.77,1.09,7.37,7.37,0,0,0-.47,1.26h-.19V45h-6.14v2.4H164V55h-3.07Zm17.47,0v-8.3a1.76,1.76,0,0,1,.2-.86,1.84,1.84,0,0,1,.56-.62,2.34,2.34,0,0,1,.78-.37,3.34,3.34,0,0,1,.91-.12c1.55,0,2.33.9,2.33,2.69v7.58h3.07v-8A4.87,4.87,0,0,0,185.12,46a3.88,3.88,0,0,0-3-1.21,3.51,3.51,0,0,0-2.36.73,4.48,4.48,0,0,0-1.26,1.74h-.12V45h-3.07V57.41Zm11.88,0h10.94V55h-3.79V45h-7.15v2.4h4.08V55h-4.08Zm7.14-14.76a1.53,1.53,0,0,0,.44-1.1V41a1.53,1.53,0,0,0-.44-1.1,2.76,2.76,0,0,0-3.05,0,1.49,1.49,0,0,0-.44,1.1v.58a1.49,1.49,0,0,0,.44,1.1,2.76,2.76,0,0,0,3.05,0ZM215.9,57.41v-2.3h-1.47V49.27a4.14,4.14,0,0,0-1.38-3.39,5.83,5.83,0,0,0-3.83-1.14,6.75,6.75,0,0,0-3.32.71A4.5,4.5,0,0,0,204,47.19l1.75,1.48A4.28,4.28,0,0,1,207,47.5a3.44,3.44,0,0,1,1.89-.46,2.48,2.48,0,0,1,1.87.6,2.45,2.45,0,0,1,.58,1.78v.81h-2.18q-5.51,0-5.5,3.75a3.47,3.47,0,0,0,1.1,2.73,4.94,4.94,0,0,0,5.4.35,3,3,0,0,0,1.32-1.79h.12a2.24,2.24,0,0,0,2.48,2.14Zm-8.62-2.21a1.27,1.27,0,0,1-.55-1.13v-.48c0-1.05.84-1.58,2.52-1.58h2.11v1.66a1.61,1.61,0,0,1-.73,1.4,3.15,3.15,0,0,1-1.84.52A2.58,2.58,0,0,1,207.28,55.2ZM77.81,79.71H79.7l3.19,6.5h3.46l-3.58-6.86a3.79,3.79,0,0,0,2.44-1.6,5.42,5.42,0,0,0,.85-3.11,5.36,5.36,0,0,0-1.29-3.79A4.88,4.88,0,0,0,81,69.46H74.66V86.21h3.15Zm0-2.45V72h2.56a2.62,2.62,0,0,1,1.83.52,2.18,2.18,0,0,1,.55,1.65v.92a2.18,2.18,0,0,1-.55,1.65,2.62,2.62,0,0,1-1.83.52Zm20.07,8.55a5.54,5.54,0,0,0,2-1.67l-1.75-1.75a4.2,4.2,0,0,1-1.38,1.24,4,4,0,0,1-2,.47,3.22,3.22,0,0,1-2.35-.83,2.92,2.92,0,0,1-.84-2.17v-.31h8.69v-1a7.42,7.42,0,0,0-.41-2.55,5.59,5.59,0,0,0-1.16-2A5.19,5.19,0,0,0,96.81,74a6.91,6.91,0,0,0-4.88,0,5.25,5.25,0,0,0-1.86,1.3,5.87,5.87,0,0,0-1.19,2A8.16,8.16,0,0,0,88.46,80a8.29,8.29,0,0,0,.41,2.68,5.62,5.62,0,0,0,1.19,2A5.12,5.12,0,0,0,92,86a7,7,0,0,0,2.64.46A6.83,6.83,0,0,0,97.88,85.81Zm-1.46-9.22a3.09,3.09,0,0,1,.73,2.15V79H91.53v-.17a3,3,0,0,1,.79-2.17,2.78,2.78,0,0,1,2.09-.83A2.61,2.61,0,0,1,96.42,76.59Zm10,9.62v-8.3a1.72,1.72,0,0,1,.21-.87,1.88,1.88,0,0,1,.55-.61,2.34,2.34,0,0,1,.78-.37,3.39,3.39,0,0,1,.91-.12c1.55,0,2.33.9,2.33,2.69v7.58h3.07v-8a4.87,4.87,0,0,0-1.14-3.47,3.88,3.88,0,0,0-3-1.21,3.52,3.52,0,0,0-2.37.73A4.48,4.48,0,0,0,106.53,76h-.12V73.83h-3.07V86.21Zm22.23,0v-2.4h-5V76.23h5v-2.4h-5V69.46h-2.86v3a1.46,1.46,0,0,1-.31,1.07,1.51,1.51,0,0,1-1.06.3h-2.45v2.4h3.6v6.61a3.49,3.49,0,0,0,.84,2.43,3.34,3.34,0,0,0,2.62.94Zm12.44-.4a5.63,5.63,0,0,0,2-1.67l-1.76-1.75a3.94,3.94,0,0,1-3.36,1.71,3.22,3.22,0,0,1-2.35-.83,2.92,2.92,0,0,1-.84-2.17v-.31h8.69v-1a7.66,7.66,0,0,0-.41-2.55,5.59,5.59,0,0,0-1.16-2A5.19,5.19,0,0,0,140,74a6.91,6.91,0,0,0-4.88,0,5.25,5.25,0,0,0-1.86,1.3,5.87,5.87,0,0,0-1.19,2,8.16,8.16,0,0,0-.42,2.71,8.29,8.29,0,0,0,.41,2.68,5.48,5.48,0,0,0,1.19,2A5,5,0,0,0,135.19,86a7,7,0,0,0,2.64.46A6.83,6.83,0,0,0,141.08,85.81Zm-1.46-9.22a3.09,3.09,0,0,1,.73,2.15V79h-5.62v-.17a3,3,0,0,1,.79-2.17,2.78,2.78,0,0,1,2.09-.83A2.61,2.61,0,0,1,139.62,76.59Zm6.92,9.62H157v-2.4h-4.3V79.62a2.77,2.77,0,0,1,3-2.91h2.54V73.83h-1.34a3.93,3.93,0,0,0-1.61.29,3.4,3.4,0,0,0-1.14.76,3.9,3.9,0,0,0-.77,1.09,7.37,7.37,0,0,0-.47,1.26h-.19v-3.4h-6.14v2.4h3.07v7.58h-3.07ZM77.81,115V108.6H81a4.88,4.88,0,0,0,3.75-1.39,6.18,6.18,0,0,0,0-7.56A4.88,4.88,0,0,0,81,98.26H74.66V115Zm0-14.21h2.56a2.62,2.62,0,0,1,1.83.52,2.18,2.18,0,0,1,.55,1.65v.92a2.18,2.18,0,0,1-.55,1.65,2.62,2.62,0,0,1-1.83.52H77.81ZM88.94,115H99.38v-2.4H95.09v-4.19a2.77,2.77,0,0,1,3-2.91h2.54v-2.88H99.26a4,4,0,0,0-1.61.29,3.4,3.4,0,0,0-1.14.76,3.9,3.9,0,0,0-.77,1.09,6.58,6.58,0,0,0-.46,1.26h-.19v-3.4H88.94V105H92v7.58H88.94Zm22.32-.17a5.21,5.21,0,0,0,1.91-1.29,5.74,5.74,0,0,0,1.2-2,8.82,8.82,0,0,0,0-5.38,5.74,5.74,0,0,0-1.2-2,5.36,5.36,0,0,0-1.91-1.3,7.31,7.31,0,0,0-5.05,0,5.32,5.32,0,0,0-1.9,1.3,5.74,5.74,0,0,0-1.2,2,8.82,8.82,0,0,0,0,5.38,5.74,5.74,0,0,0,1.2,2,5.17,5.17,0,0,0,1.9,1.29,7.16,7.16,0,0,0,5.05,0Zm-4.61-2.7a3.29,3.29,0,0,1-.77-2.36v-1.92a3.33,3.33,0,0,1,.77-2.37,3.13,3.13,0,0,1,4.18,0,3.33,3.33,0,0,1,.77,2.37v1.92a3.29,3.29,0,0,1-.77,2.36,3.1,3.1,0,0,1-4.18,0Zm22,2.87v-2.4h-5V105h5v-2.4h-5V98.26h-2.86v3a1.46,1.46,0,0,1-.31,1.07,1.51,1.51,0,0,1-1.06.3h-2.45V105h3.6v6.61a3.49,3.49,0,0,0,.84,2.43A3.34,3.34,0,0,0,124,115Zm12.44-.4a5.63,5.63,0,0,0,2-1.67l-1.76-1.75a3.94,3.94,0,0,1-3.36,1.71,3.22,3.22,0,0,1-2.35-.83,2.92,2.92,0,0,1-.84-2.17v-.31h8.69v-1A7.66,7.66,0,0,0,143,106a5.59,5.59,0,0,0-1.16-2,5.19,5.19,0,0,0-1.84-1.27,6.91,6.91,0,0,0-4.88,0,5.25,5.25,0,0,0-1.86,1.3,5.87,5.87,0,0,0-1.19,2,8.16,8.16,0,0,0-.42,2.71,8.29,8.29,0,0,0,.41,2.68,5.48,5.48,0,0,0,1.19,2,5,5,0,0,0,1.93,1.29,7,7,0,0,0,2.64.46A6.83,6.83,0,0,0,141.08,114.61Zm-1.46-9.22a3.09,3.09,0,0,1,.73,2.15v.22h-5.62v-.17a3,3,0,0,1,.79-2.17,2.78,2.78,0,0,1,2.09-.83A2.61,2.61,0,0,1,139.62,105.39Zm16.07,9.08a5.22,5.22,0,0,0,1.89-2.15L155.27,111a3.69,3.69,0,0,1-1.06,1.35,2.88,2.88,0,0,1-1.77.5,2.79,2.79,0,0,1-2.15-.8,3.11,3.11,0,0,1-.73-2.15v-2.06a3.07,3.07,0,0,1,.73-2.16,2.72,2.72,0,0,1,2.1-.8,2.58,2.58,0,0,1,1.67.5,3.1,3.1,0,0,1,.95,1.28l2.38-1.3a5.34,5.34,0,0,0-1.83-2.16,5.56,5.56,0,0,0-3.17-.81,6.75,6.75,0,0,0-2.53.45,5.37,5.37,0,0,0-1.89,1.3,5.74,5.74,0,0,0-1.2,2,8.82,8.82,0,0,0,0,5.38,5.74,5.74,0,0,0,1.2,2,5.17,5.17,0,0,0,1.9,1.29,6.66,6.66,0,0,0,2.55.46A5.87,5.87,0,0,0,155.69,114.47Zm16.14.54v-2.4h-5V105h5v-2.4h-5V98.26h-2.85v3a1.14,1.14,0,0,1-1.37,1.37h-2.45V105h3.6v6.61a3.49,3.49,0,0,0,.84,2.43,3.33,3.33,0,0,0,2.62.94Zm4.06,0h10.94v-2.4H183v-10h-7.15V105H180v7.58h-4.08ZM183,100.25a1.49,1.49,0,0,0,.44-1.1v-.58a1.49,1.49,0,0,0-.44-1.1,2,2,0,0,0-1.52-.46,2.07,2.07,0,0,0-1.53.46,1.49,1.49,0,0,0-.44,1.1v.58a1.49,1.49,0,0,0,.44,1.1,2.12,2.12,0,0,0,1.53.46A2.09,2.09,0,0,0,183,100.25Zm14.63,14.59a5.17,5.17,0,0,0,1.9-1.29,5.74,5.74,0,0,0,1.2-2,8.82,8.82,0,0,0,0-5.38,5.74,5.74,0,0,0-1.2-2,5.32,5.32,0,0,0-1.9-1.3,7.34,7.34,0,0,0-5.06,0,5.37,5.37,0,0,0-1.89,1.3,5.74,5.74,0,0,0-1.2,2,8.82,8.82,0,0,0,0,5.38,5.74,5.74,0,0,0,1.2,2,5.22,5.22,0,0,0,1.89,1.29,7.19,7.19,0,0,0,5.06,0Zm-4.61-2.7a3.29,3.29,0,0,1-.77-2.36v-1.92a3.33,3.33,0,0,1,.77-2.37,3.12,3.12,0,0,1,4.17,0,3.28,3.28,0,0,1,.77,2.37v1.92a3.24,3.24,0,0,1-.77,2.36,3.09,3.09,0,0,1-4.17,0ZM207.21,115v-8.3a1.8,1.8,0,0,1,.2-.87,2,2,0,0,1,.55-.61,2.54,2.54,0,0,1,.78-.37,3.46,3.46,0,0,1,.92-.12c1.55,0,2.32.9,2.32,2.69V115h3.08v-8a4.87,4.87,0,0,0-1.14-3.47,3.88,3.88,0,0,0-3-1.21,3.49,3.49,0,0,0-2.36.73,4.48,4.48,0,0,0-1.26,1.74h-.12v-2.18h-3.07V115Zm20.79-.8a3.55,3.55,0,0,0,1.48-3,3.12,3.12,0,0,0-.34-1.53,2.89,2.89,0,0,0-.9-1A4.1,4.1,0,0,0,227,108a10.66,10.66,0,0,0-1.53-.35l-2-.31a4,4,0,0,1-1.25-.37,1,1,0,0,1-.48-.93c0-1,.78-1.46,2.35-1.46a5,5,0,0,1,2.22.44,5,5,0,0,1,1.4,1l1.61-1.77a5.42,5.42,0,0,0-2.07-1.42,8.38,8.38,0,0,0-3.06-.5,6.79,6.79,0,0,0-4,1,3.43,3.43,0,0,0-1.45,3,3.31,3.31,0,0,0,.33,1.54,3.07,3.07,0,0,0,.9,1,4.49,4.49,0,0,0,1.3.63,9.61,9.61,0,0,0,1.5.35l2,.31a4.18,4.18,0,0,1,1.24.36.94.94,0,0,1,.47.92,1.26,1.26,0,0,1-.7,1.17,3.77,3.77,0,0,1-1.85.39,5.53,5.53,0,0,1-2.31-.46,5.34,5.34,0,0,1-1.77-1.3L218,113a5.69,5.69,0,0,0,2.33,1.71,8.83,8.83,0,0,0,3.53.64A6.83,6.83,0,0,0,228,114.21Z"/></g></g></svg>